/* XPM */
static char * blocks_xpm[] = {
"120 15 606 2",
"  	c None",
". 	c #000000",
"+ 	c #6161EE",
"@ 	c #6161EF",
"# 	c #6161ED",
"$ 	c #6161EA",
"% 	c #6161EB",
"& 	c #6161E6",
"* 	c #6161E3",
"= 	c #6161E2",
"- 	c #6161E0",
"; 	c #6161DC",
"> 	c #6161D0",
", 	c #3F50A5",
"' 	c #61EE62",
") 	c #61EF62",
"! 	c #61ED62",
"~ 	c #61EA62",
"{ 	c #61E762",
"] 	c #61E662",
"^ 	c #61E462",
"/ 	c #61E162",
"( 	c #61DF62",
"_ 	c #61DD62",
": 	c #61DA62",
"< 	c #61C962",
"[ 	c #4D9227",
"} 	c #EF6162",
"| 	c #EE6162",
"1 	c #ED6162",
"2 	c #E96162",
"3 	c #EA6162",
"4 	c #E76162",
"5 	c #E66162",
"6 	c #E26162",
"7 	c #E16162",
"8 	c #E06162",
"9 	c #DB6162",
"0 	c #D26162",
"a 	c #AC3225",
"b 	c #EEEEED",
"c 	c #EEEEEE",
"d 	c #ECECEC",
"e 	c #EAEAEA",
"f 	c #E9E9E9",
"g 	c #E8E8E7",
"h 	c #E6E6E5",
"i 	c #E4E4E3",
"j 	c #E2E2E2",
"k 	c #E0E0E0",
"l 	c #DFDFE0",
"m 	c #DDDDDD",
"n 	c #D9D9D8",
"o 	c #CACACA",
"p 	c #898989",
"q 	c #EE61EE",
"r 	c #EF61F0",
"s 	c #ED61ED",
"t 	c #E961EA",
"u 	c #EA61E9",
"v 	c #E761E6",
"w 	c #E661E5",
"x 	c #E361E4",
"y 	c #E161E0",
"z 	c #E061E0",
"A 	c #DB61DD",
"B 	c #D361D4",
"C 	c #AD21AD",
"D 	c #61EEED",
"E 	c #61EFEF",
"F 	c #61ECEC",
"G 	c #61EDED",
"H 	c #61E9EA",
"I 	c #61E8E7",
"J 	c #61E6E5",
"K 	c #61E5E5",
"L 	c #61E3E5",
"M 	c #61E1E1",
"N 	c #61DFE0",
"O 	c #61DDDE",
"P 	c #61DADB",
"Q 	c #61CACA",
"R 	c #21A59F",
"S 	c #EEEE62",
"T 	c #EFEF62",
"U 	c #EDED62",
"V 	c #EAEA62",
"W 	c #EBEB62",
"X 	c #E7E762",
"Y 	c #E6E662",
"Z 	c #E3E362",
"` 	c #E2E262",
" .	c #E0E062",
"..	c #DBDB62",
"+.	c #D3D362",
"@.	c #ADAB21",
"#.	c #6161EC",
"$.	c #6161E4",
"%.	c #6161E1",
"&.	c #6161DA",
"*.	c #6161D9",
"=.	c #6161D5",
"-.	c #6161D4",
";.	c #6161D2",
">.	c #6161C3",
",.	c #3F50A1",
"'.	c #61E262",
").	c #61E062",
"!.	c #61DB62",
"~.	c #61D862",
"{.	c #61D662",
"].	c #61D462",
"^.	c #61D362",
"/.	c #61D062",
"(.	c #61BC62",
"_.	c #4D9027",
":.	c #EB6162",
"<.	c #E46162",
"[.	c #E36162",
"}.	c #DE6162",
"|.	c #DC6162",
"1.	c #D96162",
"2.	c #D76162",
"3.	c #D46162",
"4.	c #D36162",
"5.	c #D16162",
"6.	c #C16162",
"7.	c #A73225",
"8.	c #F0F0F0",
"9.	c #EDEDED",
"0.	c #E4E4E4",
"a.	c #E1E1E0",
"b.	c #DDDDDC",
"c.	c #DCDCDC",
"d.	c #DADADA",
"e.	c #D8D8D8",
"f.	c #D5D5D5",
"g.	c #D3D3D4",
"h.	c #D2D2D2",
"i.	c #CFCFCE",
"j.	c #BDBDBE",
"k.	c #878788",
"l.	c #EE61EF",
"m.	c #EC61ED",
"n.	c #E461E4",
"o.	c #E361E2",
"p.	c #DE61DD",
"q.	c #DC61DB",
"r.	c #DA61D9",
"s.	c #D861D8",
"t.	c #D761D7",
"u.	c #D461D4",
"v.	c #D561D4",
"w.	c #D061CF",
"x.	c #C261C3",
"y.	c #A721A8",
"z.	c #61EFF0",
"A.	c #61EDEE",
"B.	c #61E4E4",
"C.	c #61E4E3",
"D.	c #61E1E0",
"E.	c #61DDDC",
"F.	c #61DBDB",
"G.	c #61D8D9",
"H.	c #61D7D9",
"I.	c #61D6D6",
"J.	c #61D4D4",
"K.	c #61D2D2",
"L.	c #61CECE",
"M.	c #61BDBE",
"N.	c #21A39E",
"O.	c #ECEC62",
"P.	c #E4E462",
"Q.	c #E1E162",
"R.	c #DDDD62",
"S.	c #DADA62",
"T.	c #D8D862",
"U.	c #D7D762",
"V.	c #D5D562",
"W.	c #D0D062",
"X.	c #C2C262",
"Y.	c #A7A621",
"Z.	c #6161DF",
"`.	c #6161DE",
" +	c #6161D1",
".+	c #6161CE",
"++	c #6161C1",
"@+	c #3F50A0",
"#+	c #61EC62",
"$+	c #61D562",
"%+	c #61D162",
"&+	c #61CE62",
"*+	c #DF6162",
"=+	c #D86162",
"-+	c #D66162",
";+	c #D06162",
">+	c #CE6162",
",+	c #C06162",
"'+	c #F0F0EF",
")+	c #DFDFDE",
"!+	c #DEDEDD",
"~+	c #DADADB",
"{+	c #D9D9DA",
"]+	c #D7D7D7",
"^+	c #D2D2D3",
"/+	c #D0D0D0",
"(+	c #CECECE",
"_+	c #CBCBCB",
":+	c #BCBCBD",
"<+	c #878787",
"[+	c #ED61EE",
"}+	c #EA61EB",
"|+	c #DF61DF",
"1+	c #D961DA",
"2+	c #D761D6",
"3+	c #D661D5",
"4+	c #D561D5",
"5+	c #D161D1",
"6+	c #D061D0",
"7+	c #CD61CC",
"8+	c #C061C1",
"9+	c #A721A7",
"0+	c #61EEEF",
"a+	c #61E0E0",
"b+	c #61E0DF",
"c+	c #61DEDD",
"d+	c #61D9D9",
"e+	c #61D5D5",
"f+	c #61D3D3",
"g+	c #61D1D0",
"h+	c #61CFCE",
"i+	c #61CBCB",
"j+	c #61BCBD",
"k+	c #DEDE62",
"l+	c #DCDC62",
"m+	c #D1D162",
"n+	c #CDCD62",
"o+	c #C1C162",
"p+	c #6161E8",
"q+	c #6161D8",
"r+	c #6161CD",
"s+	c #6161CB",
"t+	c #6161BE",
"u+	c #3F509F",
"v+	c #61E862",
"w+	c #61DE62",
"x+	c #61DC62",
"y+	c #61D262",
"z+	c #61CF62",
"A+	c #61CD62",
"B+	c #61BB62",
"C+	c #4D8F27",
"D+	c #D56162",
"E+	c #CC6162",
"F+	c #EDEDEC",
"G+	c #E8E8E8",
"H+	c #DFDFDF",
"I+	c #DBDBDA",
"J+	c #D8D8D9",
"K+	c #D6D6D5",
"L+	c #D1D1D1",
"M+	c #CFCFCF",
"N+	c #CDCDCD",
"O+	c #BBBBBB",
"P+	c #868686",
"Q+	c #EA61EA",
"R+	c #DE61DE",
"S+	c #DC61DC",
"T+	c #DB61DB",
"U+	c #DB61DC",
"V+	c #D461D5",
"W+	c #D361D2",
"X+	c #D161D0",
"Y+	c #CF61D0",
"Z+	c #CD61CE",
"`+	c #61E8E8",
" @	c #61DFDF",
".@	c #61DDDD",
"+@	c #61D2D3",
"@@	c #61CFD0",
"#@	c #61BBBB",
"$@	c #21A29D",
"%@	c #E5E562",
"&@	c #6161E7",
"*@	c #6161DD",
"=@	c #6161CC",
"-@	c #6161BD",
";@	c #61D962",
">@	c #61D762",
",@	c #61BA62",
"'@	c #DA6162",
")@	c #CD6162",
"!@	c #BF6162",
"~@	c #E7E7E6",
"{@	c #DDDDDF",
"]@	c #D9D9D9",
"^@	c #D5D5D4",
"/@	c #D4D4D3",
"(@	c #CFCFD0",
"_@	c #CECECF",
":@	c #BABABA",
"<@	c #E961E9",
"[@	c #E461E3",
"}@	c #DD61DE",
"|@	c #DB61DA",
"1@	c #DA61DA",
"2@	c #D261D1",
"3@	c #CE61CF",
"4@	c #BF61C0",
"5@	c #61EBEC",
"6@	c #61E7E6",
"7@	c #61DDDF",
"8@	c #61DCDC",
"9@	c #61DBDA",
"0@	c #61D8D8",
"a@	c #61D4D5",
"b@	c #61CCCC",
"c@	c #61BABA",
"d@	c #D6D662",
"e@	c #D4D462",
"f@	c #CECE62",
"g@	c #BFBF62",
"h@	c #A7A521",
"i@	c #6161D6",
"j@	c #6161CF",
"k@	c #61EB62",
"l@	c #61CC62",
"m@	c #61B862",
"n@	c #E86162",
"o@	c #CF6162",
"p@	c #A63225",
"q@	c #E9E9EA",
"r@	c #E5E5E5",
"s@	c #DCDCDD",
"t@	c #D7D7D6",
"u@	c #D3D3D2",
"v@	c #D1D1D0",
"w@	c #CDCDCE",
"x@	c #CCCCCC",
"y@	c #B8B8B8",
"z@	c #E761E8",
"A@	c #E361E3",
"B@	c #D961D9",
"C@	c #D861D7",
"D@	c #D361D3",
"E@	c #D261D2",
"F@	c #CE61CE",
"G@	c #CC61CD",
"H@	c #BD61BC",
"I@	c #A621A6",
"J@	c #61DBDD",
"K@	c #61DAD9",
"L@	c #61D7D6",
"M@	c #61D6D5",
"N@	c #61D3D4",
"O@	c #61D1D1",
"P@	c #61D0D0",
"Q@	c #61CDCE",
"R@	c #61B8B8",
"S@	c #E8E862",
"T@	c #D9D962",
"U@	c #D2D262",
"V@	c #CCCC62",
"W@	c #BDBD62",
"X@	c #A6A421",
"Y@	c #6161E5",
"Z@	c #6161C9",
"`@	c #CA6162",
" #	c #E7E7E8",
".#	c #E3E3E4",
"+#	c #CCCCCD",
"@#	c #C9C9C9",
"##	c #E561E6",
"$#	c #E261E2",
"%#	c #CF61CF",
"&#	c #CA61CB",
"*#	c #61E7E8",
"=#	c #61E3E4",
"-#	c #61D9DA",
";#	c #61CECF",
">#	c #61CDCD",
",#	c #61C9CA",
"'#	c #CFCF62",
")#	c #CACA62",
"!#	c #6161D7",
"~#	c #61CA62",
"{#	c #61B762",
"]#	c #4D8E27",
"^#	c #E56162",
"/#	c #C96162",
"(#	c #BA6162",
"_#	c #A53225",
":#	c #D4D4D5",
"<#	c #C8C8C8",
"[#	c #B7B7B7",
"}#	c #858585",
"|#	c #E561E5",
"1#	c #DE61DF",
"2#	c #CD61CD",
"3#	c #CB61CB",
"4#	c #C961C9",
"5#	c #BC61BC",
"6#	c #A521A6",
"7#	c #61E2E2",
"8#	c #61D2D1",
"9#	c #61CDCC",
"0#	c #61CCCB",
"a#	c #61B7B7",
"b#	c #21A19C",
"c#	c #C9C962",
"d#	c #BCBC62",
"e#	c #A5A421",
"f#	c #6161DB",
"g#	c #6161D3",
"h#	c #6161C7",
"i#	c #6161BC",
"j#	c #61B662",
"k#	c #DD6162",
"l#	c #E6E6E7",
"m#	c #E0E0E2",
"n#	c #D4D4D4",
"o#	c #C9C9CA",
"p#	c #B5B5B6",
"q#	c #858584",
"r#	c #E361E5",
"s#	c #DD61DF",
"t#	c #CC61CC",
"u#	c #CC61CB",
"v#	c #C961CA",
"w#	c #BA61BC",
"x#	c #A521A5",
"y#	c #61E6E7",
"z#	c #61E0E2",
"A#	c #61D0CF",
"B#	c #61CACB",
"C#	c #61B6B6",
"D#	c #21A19B",
"E#	c #BABA62",
"F#	c #A5A321",
"G#	c #6161C6",
"H#	c #61E362",
"I#	c #61CB62",
"J#	c #61C862",
"K#	c #61C662",
"L#	c #4D8D27",
"M#	c #C66162",
"N#	c #B96162",
"O#	c #E3E3E3",
"P#	c #D3D3D3",
"Q#	c #D2D2D1",
"R#	c #CBCBCC",
"S#	c #CACACB",
"T#	c #C7C7C8",
"U#	c #C4C4C6",
"V#	c #848484",
"W#	c #E161E1",
"X#	c #DC61DD",
"Y#	c #CF61CE",
"Z#	c #C561C6",
"`#	c #61E3E3",
" $	c #61C8C8",
".$	c #61C6C6",
"+$	c #61B6B7",
"@$	c #CBCB62",
"#$	c #C6C662",
"$$	c #6161CA",
"%$	c #6161BB",
"&$	c #61C562",
"*$	c #61B462",
"=$	c #C76162",
"-$	c #B86162",
";$	c #A43225",
">$	c #E2E2E3",
",$	c #CCCCCB",
"'$	c #C6C6C6",
")$	c #C5C5C6",
"!$	c #B4B4B6",
"~$	c #CA61CA",
"{$	c #C761C6",
"]$	c #BA61BB",
"^$	c #61E2E3",
"/$	c #61CBCA",
"($	c #61C5C6",
"_$	c #61B4B6",
":$	c #21A09B",
"<$	c #C7C762",
"[$	c #6161C5",
"}$	c #6161B6",
"|$	c #3F509D",
"1$	c #61C762",
"2$	c #CB6162",
"3$	c #C86162",
"4$	c #C56162",
"5$	c #E0E0DF",
"6$	c #DBDBDB",
"7$	c #CBCBCA",
"8$	c #CACAC9",
"9$	c #C7C7C6",
"0$	c #C6C6C5",
"a$	c #B4B4B2",
"b$	c #DD61DD",
"c$	c #CA61C9",
"d$	c #C861C9",
"e$	c #C761C7",
"f$	c #C661C6",
"g$	c #C661C5",
"h$	c #B961B8",
"i$	c #A421A4",
"j$	c #61CCCD",
"k$	c #61CAC9",
"l$	c #61C7C6",
"m$	c #61C6C5",
"n$	c #61B5B3",
"o$	c #C5C562",
"p$	c #B8B862",
"q$	c #A4A321",
"r$	c #C46162",
"s$	c #C5C5C5",
"t$	c #B3B3B2",
"u$	c #DD61DC",
"v$	c #CB61CA",
"w$	c #C461C6",
"x$	c #C461C5",
"y$	c #C561C5",
"z$	c #61D9D8",
"A$	c #61C4C5",
"B$	c #61B4B2",
"C$	c #C4C462",
"D$	c #6161B8",
"E$	c #6161B7",
"F$	c #6161B2",
"G$	c #3F509C",
"H$	c #61BD62",
"I$	c #61B962",
"J$	c #61B562",
"K$	c #61B362",
"L$	c #61AF62",
"M$	c #BD6162",
"N$	c #BC6162",
"O$	c #B76162",
"P$	c #B56162",
"Q$	c #B46162",
"R$	c #B36162",
"S$	c #B06162",
"T$	c #A23225",
"U$	c #BDBDBC",
"V$	c #B6B6B8",
"W$	c #B5B5B4",
"X$	c #B0B0B0",
"Y$	c #C761C9",
"Z$	c #BC61BD",
"`$	c #B861B8",
" %	c #B661B8",
".%	c #B561B6",
"+%	c #B461B2",
"@%	c #B361B2",
"#%	c #B061AF",
"$%	c #A221A1",
"%%	c #61BDBC",
"&%	c #61BCBC",
"*%	c #61BBBC",
"=%	c #61B9B8",
"-%	c #61B7B8",
";%	c #61B5B6",
">%	c #61B5B4",
",%	c #61AEAE",
"'%	c #BBBB62",
")%	c #B9B962",
"!%	c #B7B762",
"~%	c #B5B562",
"{%	c #B4B462",
"]%	c #B0B062",
"^%	c #A2A021",
"/%	c #3F50A4",
"(%	c #3F509B",
"_%	c #3F509A",
":%	c #344B94",
"<%	c #4D9A27",
"[%	c #4D9527",
"}%	c #468414",
"|%	c #AB3225",
"1%	c #A33225",
"2%	c #A13225",
"3%	c #A03225",
"4%	c #9D2312",
"5%	c #919192",
"6%	c #8C8C8C",
"7%	c #787878",
"8%	c #AB21AB",
"9%	c #A321A3",
"0%	c #A321A4",
"a%	c #A221A2",
"b%	c #A121A0",
"c%	c #A021A0",
"d%	c #9D0D9D",
"e%	c #21ADA8",
"f%	c #21A8A3",
"g%	c #21A39D",
"h%	c #21A29C",
"i%	c #0D9D96",
"j%	c #ABA921",
"k%	c #A3A121",
"l%	c #A3A221",
"m%	c #A2A121",
"n%	c #A19F21",
"o%	c #9D9B0D",
". . . . . . . . . . . . . . . + @ # # $ % & & * = - - ; > , ' ) ' ! ~ ~ { ] ^ / ( _ : < [ } } | 1 2 3 4 5 6 7 8 8 9 0 a b c d e f g h i j k l m n o p q r s s t u v w x y z z A B C D E F G H I J K L M N O P Q R S T S U V W X Y Z `  . ...+.@.",
". . . . . . . . . . . . . . . @ #.$.= %.= ; &.*.*.=.-.;.>.,.) ! ^ '.).)._ !.~.{.].^./.(._.1 :.<.[.7 }.|.|.1.2.3.4.5.6.7.8.9.0.j a.b.c.d.e.f.g.h.i.j.k.l.m.n.o.y p.q.r.s.t.u.v.w.x.y.z.A.B.C.D.E.F.G.H.I.J.K.L.M.N.S O.P.Q. . .R.S.T.U.V.V.W.X.Y.",
". . . . . . . . . . . . . . . + % - Z.`.`.*.=.=.=. +> .+++@+) #+).( _ _ : ~.$+^.%+/.&+(._.1 2 8 *+}.|.1.=+-+3.5.;+>+,+7.'+d k )+!+~+{+]+f.^+/+(+_+:+<+[+}+z |+p.q.1+2+3+4+5+6+7+8+9+0+F a+b+c+P d+I.e+f+g+h+i+j+N.U V  .k+R.l+S.U.V.V.m+m+n+o+Y.",
". . . . . . . . . . . . . . . % p+Z.; ; &.q+=.=.;.> r+s+t+u+' v+( w+_ x+~.~.$+y+z+z+A+B+C+:.5 *+|.9 9 1.-+D+0 ;+;+E+,+7.F+G+H+c.I+~+J+K+f.L+/+M+N+O+P+Q+w R+S+T+U+1+t.V+W+X+Y+Z+8+9+F `+ @.@F.P d+I.e++@@@L.i+#@$@W %@k+R.R...T.U.V.V.W.W.n+o+Y.",
". . . . . . . . . . . . . . . $ &@`.&.*@&.q+=.-. +> =@s+-@u+! { _ x+x+!.;@>@].y+z+z+&+,@C+3 <.}.9 '@1.=+-+D+0 ;+>+)@!@7.F+~@{@c.d.]@e.^@/@L+(@M+_@:@P+<@[@}@|@1@1+s.3+u.2@X+3@3@4@9+5@6@7@8@9@d+0@e+a@+@@@L.b@c@$@V P.R...l+..T.d@e@e@W.f@n+g@h@",
". . . . . . . . . . . . . . . &@%.; &.&.&.i@=. +;.j@> s+t+u+k@] !.!.;@;@$+$+^.%+&+A+l@m@C+n@[.|.9 1.=+-+D+0 5.o@>+E+!@p@q@r@s@~+]@t@K+u@v@L+/+w@x@y@P+z@A@S+1@B@C@3+V+D@E@6+F@G@H@I@H K J@P K@L@M@N@K.O@P@Q@b@R@$@S@Z ....T@T.d@d@+.U@W.f@V@W@X@",
". . . . . . . . . . . . . . . Y@Z.&.*.*.*.i@=. +> r+j@Z@-@u+v+^ ;@: ;@>@$+$+y+z+A+l@< m@C+4 6 '@'@=+-+-+-+0 o@)@>+`@!@p@ #.#d.]@e.K+K+u@v@(@_@+#@#y@P+##$#1@r.s.3+4+V+E@X+%#3@&#H@I@*#=#-#d+0@M@e+K.g+P@;#>#,#R@$@Y ` S.S.T.d@V.d@U@m+'#f@)#W@X@",
". . . . . . . . . . . . . . . $.; !#=.-.;.-.;.> .+r+s+Z@t+u+] / ~.{.{.$+$+].%+/.z+~#< {#]#^#}.-+-+3.D+3.0 ;+>+o@E+/#(#_#G+j K+f.:#:#:#L+/+(+N+o <#[#}#|#1#3+3+4+V+V+E@E@F@2#3#4#5#6#`+7#0@L@J.J.a@8#g+9#0#i+,#a#b#P.k+U.V.V.e@e@U@m+f@V@V@c#d#e#",
". . . . . . . . . . . . . . . * f#=.-.g# +g#> j@=@s+s+h#i#u+] ).{.$+$+^.^.y+/.z+&+~#< j#]#[.k#-+D+3.3.4.5.o@E+>+E+/#(#_#l#m#K+:#n#g.g./+M+N+_@_+o#p#q#r#s#3+v.v.u.B Y+w.t#F@u#v#w#x#y#z#M@e+J.f+N@g+A#0#0#B#,#C#D#Z R.d@e@e@m++.m+W.V@V@V@c#E#F#",
". . . . . . . . . . . . . . . %.*@g#;. +g#> > =@.+s+Z@G#i#u+H#( ^.^.%+y+/./.A+l@I#J#K#j#L#7 k#4.0 5.5.o@>+>+)@`@/#M#N#_#O#H+P#Q#v@/+(@(+(+R#S#T#U#p#V#W#X#W+X+X+6+Y#Y#7+Z+&#4#Z#w#6#`#c+f+8#K.O@P@L.0#b@0# $.$+$b#Q.R.+.e@U@+.W.'#n+n+@$c##$E#e#",
". . . . . . . . . . . . . . . - &.;.=.> > > > =@s+$$G#G#%$u+'.w+y+^.%+%+z+z+l@l@I#K#&$*$L#8 k#0 3.5.5.>+E+E+`@`@=$M#-$;$>$m v@v@v@/+_@,$,$S#o#'$)$!$V#z |@X+X+6+Y+t#u#u#&#~${$Z#]$x#^$.@g+g+g+P@@@>#0#i+/$.$($_$:$ .R.U@e@m+m+'#'#V@)#)#<$#$E#F#",
". . . . . . . . . . . . . . . *@q+j@> =@.+r+s+Z@Z@h#G#[$}$|$_ ;@z+&+&+A+A+l@~#< 1$K#K#*$L#k#=+o@o@>+>+E+2$/#3$=$M#4$(#_#5$6$(+(+(+N++#7$8$<#9$'$0$a$V#b$s.Y#Y#%#F@2#3#c$d$e$f$g$h$i$b+F.L.;#9#>#j$Q k$ $l$($m$n$b#..U.'#f@f@n+n+)#)#c#<$<$o$p$q$",
". . . . . . . . . . . . . . . ; =.=@j@s+$$.+$$G#G#G#G#[$}$|$_ >@l@I#I#~#&+l@1$K#K#&$K#*$L#9 -+2$2$2$2$)@/#=$r$r$r$r$(#_#5$n ,$_+7$N+w@<#'$s$0$s$0$t$V#u$3+u#3#Z+v$Z+v#{$w$w$x$y$]$x#b+z$0#>#0#>#Q@ $.$($.$A$A$B$D#S.e@V@@$@$)#n+c#<$#$o$#$C$p$q$",
". . . . . . . . . . . . . . . g#Z@i#-@%$D$D$}$E$}$}$}$}$F$G$: &+H$(.B+B+I$m@{#j#J$*$K$L$L#3.=$M$N$(#-$-$-$O$P$P$Q$R$S$T$e.(+U$O+:@y@y@V$V$W$a$a$t$X$V#D@Y$H@Z$]$`$`$ % %.%.%+%@%#%$%0@L.%%&%*%=%R@R@-%;%;%>%;%,%:$e@<$W@d#'%'%)%p$!%~%~%{%~%]%^%",
". . . . . . . . . . . . . . . /%u+G$|$(%(%(%_%(%_%_%_%_%_%:%<%[%C+_.C+C+C+C+C+C+]#L#L#]#}%|%_#1%1%T$T$T$T$T$2%2%2%3%2%4%5%6%P+P+P+P+P+P+P+q#q#V#V#q#7%8%6#9%0%a%a%a%a%a%b%b%b%c%b%d%e%f%$@g%N.$@$@$@h%D#D#D#D#D#i%j%e#k%l%m%m%^%^%^%n%n%n%n%n%o%"};
