/* XPM */
static char * tetris_xpm[] = {
"48 48 6 1",
" 	c None",
".	c #000000",
"+	c #F50000",
"@	c #FFFF00",
"#	c #D517DC",
"$	c #11F400",
"................................................",
"................................................",
"................................................",
"................................................",
"................................................",
"................................................",
"................................................",
"................................................",
"................................................",
"....+++++++.........................@@@@@@@.....",
"....+++++++.........................@@@@@@@.....",
"....+++++++.........................@@@@@@@.....",
"....+++++++.........................@@@@@@@.....",
"....+++++++.........................@@@@@@@.....",
"....+++++++.........................@@@@@@@.....",
"....+++++++.........................@@@@@@@.....",
"................................................",
"....+++++++.+++++++.........@@@@@@@.@@@@@@@.....",
"....+++++++.+++++++.........@@@@@@@.@@@@@@@.....",
"....+++++++.+++++++.........@@@@@@@.@@@@@@@.....",
"....+++++++.+++++++.........@@@@@@@.@@@@@@@.....",
"....+++++++.+++++++.........@@@@@@@.@@@@@@@.....",
"....+++++++.+++++++.........@@@@@@@.@@@@@@@.....",
"....+++++++.+++++++.........@@@@@@@.@@@@@@@.....",
"................................................",
"....#######.+++++++.$$$$$$$.$$$$$$$.@@@@@@@.....",
"....#######.+++++++.$$$$$$$.$$$$$$$.@@@@@@@.....",
"....#######.+++++++.$$$$$$$.$$$$$$$.@@@@@@@.....",
"....#######.+++++++.$$$$$$$.$$$$$$$.@@@@@@@.....",
"....#######.+++++++.$$$$$$$.$$$$$$$.@@@@@@@.....",
"....#######.+++++++.$$$$$$$.$$$$$$$.@@@@@@@.....",
"....#######.+++++++.$$$$$$$.$$$$$$$.@@@@@@@.....",
"................................................",
"....#######.#######.#######.$$$$$$$.$$$$$$$.....",
"....#######.#######.#######.$$$$$$$.$$$$$$$.....",
"....#######.#######.#######.$$$$$$$.$$$$$$$.....",
"....#######.#######.#######.$$$$$$$.$$$$$$$.....",
"....#######.#######.#######.$$$$$$$.$$$$$$$.....",
"....#######.#######.#######.$$$$$$$.$$$$$$$.....",
"....#######.#######.#######.$$$$$$$.$$$$$$$.....",
"................................................",
"................................................",
"................................................",
"................................................",
"................................................",
"................................................",
"................................................",
"................................................"};
